<svg width="524" height="512" viewBox="0 0 524 512" fill="none" xmlns="http://www.w3.org/2000/svg">
<path d="M114.496 160H0V512H114.496V160Z" fill="#EEEEEE"/>
<path d="M438.368 164.128C437.152 163.744 436 163.328 434.72 162.976C433.184 162.624 431.648 162.336 430.08 162.08C424 160.864 417.344 160 409.536 160C342.784 160 300.448 208.544 286.496 227.296V160H172V512H286.496V320C286.496 320 373.024 199.488 409.536 288C409.536 367.008 409.536 512 409.536 512H524V274.464C524 221.28 487.552 176.96 438.368 164.128Z" fill="#EEEEEE"/>
<path d="M56 112C86.9279 112 112 86.9279 112 56C112 25.0721 86.9279 0 56 0C25.0721 0 0 25.0721 0 56C0 86.9279 25.0721 112 56 112Z" fill="#EEEEEE"/>
</svg>
