<svg width="416" height="512" viewBox="0 0 416 512" fill="none" xmlns="http://www.w3.org/2000/svg">
<path d="M214.944 0C74.624 0 0 89.92 0 187.968C0 233.44 25.408 290.144 66.08 308.128C72.256 310.912 75.616 309.728 76.992 304C78.208 299.648 83.552 278.688 86.144 268.8C86.944 265.632 86.528 262.88 83.968 259.904C70.464 244.288 59.744 215.84 59.744 189.152C59.744 120.768 114.112 54.368 206.624 54.368C286.624 54.368 342.592 106.336 342.592 180.672C342.592 264.672 298.144 322.784 240.384 322.784C208.416 322.784 184.608 297.696 192.16 266.656C201.28 229.696 219.168 189.952 219.168 163.296C219.168 139.392 205.664 119.616 178.08 119.616C145.536 119.616 119.136 151.84 119.136 195.104C119.136 222.592 128.864 241.152 128.864 241.152C128.864 241.152 96.672 371.2 90.688 395.488C80.576 436.608 92.064 503.2 93.056 508.928C93.664 512.096 97.216 513.088 99.2 510.496C102.368 506.336 141.28 450.816 152.192 410.688C156.16 396.064 172.448 336.768 172.448 336.768C183.168 356.128 214.112 372.352 247.072 372.352C345.12 372.352 415.968 286.176 415.968 179.232C415.616 76.704 327.872 0 214.944 0Z" fill="#EEEEEE"/>
</svg>
